2011 

Hop in 720p HD

Enjoy

Great movie for kids.




General
Unique ID                        : 239540063568403900510354673696702336735 (0xB435BCF621DF86D493042A482DD60EDF)
Complete name                    : C:\Users\Dale\Videos\Hop.mkv
Format                           : Matroska
File size                        : 2.50 GiB
Duration                         : 1h 35mn
Overall bit rate                 : 3 766 Kbps

Video
ID                               : 1
Format                           : AVC
Format/Info                      : Advanced Video Codec
Format profile                   : High@L4.1
Format settings, CABAC           : Yes
Format settings, ReFrames        : 5 frames
Codec ID                         : V_MPEG4/ISO/AVC
Duration                         : 1h 35mn
Bit rate                         : 3 315 Kbps
Width                            : 1 280 pixels
Height                           : 694 pixels
Display aspect ratio             : 16:9
Frame rate                       : 23.976 fps
Color space                      : YUV
Chroma subsampling               : 4:2:0
Bit depth                        : 8 bits
Scan type                        : Progressive
Bits/(Pixel*Frame)               : 0.156
Stream size                      : 2.15 GiB (86%)
Writing library                  : x264 core 115 r1995 c1e60b9
Encoding settings                : cabac=1 / ref=5 / deblock=1:-2:-2 / 

Audio
ID                               : 2
Format                           : AC-3
Format/Info                      : Audio Coding 3
Mode extension                   : CM (complete main)
Codec ID                         : A_AC3
Duration                         : 1h 35mn
Bit rate mode                    : Constant
Bit rate                         : 448 Kbps
Channel(s)                       : 6 channels
Channel positions                : Front: L C R, Side: L R, LFE
Sampling rate                    : 48.0 KHz
Bit depth                        : 16 bits
Compression mode                 : Lossy
Stream size                      : 304 MiB (12%)
Language                         : English